<?xml version="1.0" ?><!DOCTYPE svg  PUBLIC '-//W3C//DTD SVG 1.1//EN'  'http://www.w3.org/Graphics/SVG/1.1/DTD/svg11.dtd'><svg enable-background="new 0 0 50 50" id="Layer_1" version="1.1" viewBox="0 0 50 50" xml:space="preserve" xmlns="http://www.w3.org/2000/svg" xmlns:xlink="http://www.w3.org/1999/xlink"><path d="M45,1H5C2.8,1,1,2.8,1,5v40c0,2.2,1.8,4,4,4h40c2.2,0,4-1.8,4-4V5C49,2.8,47.2,1,45,1z" fill="#FF7700"/><g id="cloud"><path d="M38,25h-1c2-4-2-8-7-8c-0.6,0-1,0-1,0c-0.6,0-1,0.4-1,1v14c0,0.6,0.4,1,1,1h4h2h3   c2.2,0,4-1.8,4-4S40.2,25,38,25z" fill="#FFFFFF" id="Cloud_1_"/><path d="M13,24.9c-0.6,0-1,0.4-1,1V32c0,0.6,0.4,1,1,1s1-0.4,1-1v-6.1C14,25.4,13.6,24.9,13,24.9z" fill="#FFFFFF"/><path d="M21,18c-0.6,0-1,0.4-1,1v13c0,0.6,0.4,1,1,1s1-0.4,1-1V19C22,18.4,21.6,18,21,18z" fill="#FFFFFF"/><path d="M25,21c-0.6,0-1,0.4-1,1v10c0,0.6,0.4,1,1,1c0.6,0,1-0.4,1-1V22C26,21.4,25.6,21,25,21z" fill="#FFFFFF"/><path d="M17,22c-0.6,0-1,0.4-1,1v9c0,0.6,0.4,1,1,1s1-0.4,1-1v-9C18,22.4,17.6,22,17,22z" fill="#FFFFFF"/><path d="M9,27.9c-0.6,0-1,0.4-1,1V32c0,0.6,0.4,1,1,1s1-0.4,1-1v-3.1C10,28.4,9.6,27.9,9,27.9z" fill="#FFFFFF"/></g></svg>